<svg xmlns="http://www.w3.org/2000/svg"  viewBox="0 0 64 64" width="64px" height="64px" fill-rule="evenodd" clip-rule="evenodd" baseProfile="basic"><path fill="#b6b6ef" fill-rule="evenodd" d="M9.681,42.081	l-3.001,6.311c-1.529,3.212-0.38,7.16,2.764,8.836c3.337,1.768,7.439,0.385,9.046-2.984l2.74-5.761	C17.001,47.119,13.077,44.946,9.681,42.081L9.681,42.081z" clip-rule="evenodd"/><path fill="#f7a1c8" fill-rule="evenodd" d="M57.609,14.133	c-3.634-0.736-7.169,1.663-7.895,5.363c-0.645,3.279-2.156,6.336-4.231,8.928l6.098,13.083c5.634-4.975,9.792-11.747,11.286-19.329	C63.593,18.466,61.235,14.867,57.609,14.133L57.609,14.133z" clip-rule="evenodd"/><path fill="#85cbf8" fill-rule="evenodd" d="M34.105,36.505	c-1.308,0.317-2.642,0.484-3.977,0.484c-1.041,0-2.117-0.12-3.194-0.352c-4.466-0.964-8.956-4.343-11.497-7.747	c-0.635-0.849-1.149-1.735-1.506-2.641c-1.394-3.477-5.303-5.155-8.737-3.757c-3.433,1.408-5.088,5.372-3.707,8.849	c1.574,3.955,4.353,7.583,7.839,10.567c3.459,2.953,7.452,5.193,11.755,6.6c2.954,0.967,6.018,1.492,9.038,1.492	c3.349,0,6.655-0.584,9.801-1.66L34.105,36.505z" clip-rule="evenodd"/><path fill="#8d6c9f" fill-rule="evenodd" d="M31.006,46.003	c-0.041-0.549,0.373-1.029,0.924-1.069c0.081-0.007,0.165-0.015,0.239-0.02l1.852-0.239c0.547-0.071,1.048,0.316,1.118,0.864	c0.071,0.547-0.316,1.048-0.864,1.119l-1.892,0.244c-0.111,0.011-0.208,0.019-0.308,0.025	C31.526,46.969,31.046,46.554,31.006,46.003z M22.011,45.657c-3.93-1.284-7.577-3.331-10.737-6.028	c-0.364-0.309-0.716-0.625-1.058-0.949c-0.401-0.379-0.42-1.012-0.041-1.413c0.379-0.401,1.012-0.42,1.413-0.041	c0.319,0.3,0.647,0.595,0.984,0.883c2.962,2.529,6.38,4.445,10.062,5.649c1.816,0.595,3.653,0.983,5.462,1.149	c0.549,0.049,0.955,0.537,0.904,1.087c-0.049,0.549-0.537,0.955-1.086,0.904C25.947,46.717,23.96,46.297,22.011,45.657z M7.412,35.618c-1.329-1.703-2.397-3.515-3.139-5.384c-0.204-0.513,0.047-1.095,0.559-1.299c0.513-0.204,1.094,0.047,1.298,0.559	c0.665,1.672,1.632,3.321,2.859,4.893c0.339,0.435,0.261,1.064-0.173,1.404C8.382,36.13,7.752,36.053,7.412,35.618z" clip-rule="evenodd"/><path fill="#8d6c9f" fill-rule="evenodd" d="M17.248,16.71	l-1.797-0.877c-0.497-0.241-0.703-0.84-0.46-1.336c0.241-0.497,0.84-0.703,1.336-0.46l1.797,0.877	c0.497,0.241,0.703,0.84,0.46,1.336C18.343,16.747,17.744,16.953,17.248,16.71z M41.985,15.159	c-0.239-0.499-0.028-1.096,0.469-1.335l1.802-0.864c0.499-0.239,1.096-0.028,1.334,0.469c0.239,0.499,0.028,1.096-0.469,1.335	l-1.802,0.864C42.821,15.867,42.224,15.657,41.985,15.159z M19.422,12.202l-1.802-0.864c-0.497-0.239-0.708-0.836-0.469-1.335	c0.239-0.497,0.836-0.708,1.334-0.469l1.802,0.864c0.497,0.239,0.708,0.836,0.469,1.335C20.518,12.23,19.921,12.441,19.422,12.202z M39.823,10.651c-0.239-0.499-0.028-1.096,0.469-1.335l1.802-0.864c0.499-0.239,1.096-0.028,1.334,0.469	c0.239,0.499,0.028,1.096-0.469,1.335l-1.802,0.864C40.659,11.359,40.062,11.149,39.823,10.651z M21.547,7.89l-1.6-1.2	c-0.443-0.331-0.532-0.957-0.2-1.4c0.331-0.441,0.957-0.531,1.4-0.2l1.6,1.2c0.441,0.332,0.531,0.959,0.2,1.4	C22.615,8.133,21.989,8.222,21.547,7.89z M37.523,6.982c-0.384-0.396-0.375-1.029,0.023-1.413l1.437-1.392	c0.396-0.384,1.029-0.375,1.413,0.023c0.384,0.396,0.375,1.029-0.023,1.413l-1.437,1.392C38.54,7.389,37.907,7.379,37.523,6.982z M24.728,4.666l-0.912-1.779c-0.252-0.492-0.057-1.095,0.433-1.347c0.492-0.252,1.094-0.057,1.346,0.433l0.912,1.779	c0.252,0.492,0.057,1.095-0.433,1.347C25.583,5.351,24.98,5.157,24.728,4.666z M34.119,4.687c-0.515-0.2-0.771-0.78-0.569-1.293	l0.725-1.864c0.2-0.515,0.78-0.771,1.293-0.569c0.515,0.2,0.771,0.78,0.569,1.293l-0.725,1.864	C35.212,4.633,34.632,4.889,34.119,4.687z M29.005,2.999v-2c0-0.551,0.448-1,1-1c0.551,0,1,0.449,1,1v2c0,0.552-0.449,1-1,1	C29.453,3.999,29.005,3.551,29.005,2.999z" clip-rule="evenodd"/><path fill="#ed7899" fill-rule="evenodd" d="M54.331,48.366	l-3.163-6.655l-5.988-12.615l-0.012,0.011c0,0,0-0.011,0.012-0.011l-8.714-18.335c-1.092-2.297-3.405-3.761-5.946-3.763	c-2.54,0-4.852,1.463-5.946,3.763l-8.886,18.697c2.497,3.301,6.908,6.012,11.29,6.945l2.874-6.043c0.271-0.568,1.088-0.568,1.356,0	l2.809,5.916h0.021h-0.021l5.72,12.041l2.812,5.916c1.092,2.3,3.409,3.764,5.954,3.759c0.587,0,1.176-0.08,1.753-0.241	C54.22,56.658,56.105,52.091,54.331,48.366L54.331,48.366z" clip-rule="evenodd"/><path fill="#8d6c9f" fill-rule="evenodd" d="M38.612,39.035	l-1.892-3.975c-0.237-0.499-0.025-1.096,0.473-1.333c0.499-0.237,1.096-0.025,1.333,0.473l1.892,3.975	c0.237,0.499,0.025,1.096-0.473,1.333C39.447,39.746,38.85,39.534,38.612,39.035z M24.467,32.438	c-0.497-0.237-0.711-0.835-0.473-1.333l1.38-2.9c2.061-4.345,8.245-4.372,10.312,0.007l1.129,2.381	c0.237,0.499,0.024,1.096-0.475,1.332c-0.499,0.237-1.096,0.024-1.332-0.475l-1.129-2.384c-1.344-2.843-5.355-2.835-6.699-0.004	l-1.38,2.903C25.563,32.462,24.965,32.675,24.467,32.438z" clip-rule="evenodd"/><path fill="#a2a3ea" fill-rule="evenodd" d="M9.444,57.227	c-3.143-1.676-4.293-5.624-2.764-8.836l1.66-3.491c0.321,0.064,0.64,0.171,0.949,0.32c1.972,0.956,2.804,3.348,1.856,5.337	c-0.443,0.929-0.032,1.907,0.605,2.247c0.861,0.456,1.89,0.079,2.274-0.725l2.588-5.443c0.003-0.005,0.005-0.012,0.009-0.019	c1.484,0.731,3.025,1.355,4.609,1.864l-2.74,5.761C16.883,57.613,12.781,58.995,9.444,57.227z" clip-rule="evenodd"/><path fill="#8d6c9f" fill-rule="evenodd" d="M8.975,58.111	c-3.651-1.947-4.939-6.491-3.198-10.149l2.89-6.083c0.237-0.499,0.833-0.712,1.332-0.475c0.499,0.237,0.712,0.833,0.475,1.332	l-2.89,6.085c-1.317,2.765-0.307,6.117,2.329,7.523c2.832,1.5,6.311,0.327,7.675-2.531l2.589-5.445	c0.237-0.497,0.834-0.711,1.333-0.473c0.497,0.237,0.711,0.835,0.473,1.333l-2.589,5.445C17.541,58.555,12.817,60.147,8.975,58.111z" clip-rule="evenodd"/><path fill="#f283a5" d="M53.722,38.323c-1.782-1.303-2.173-3.807-0.871-5.589	c2.501-3.425,4.287-7.349,5.11-11.521c0.409-2.081,2.369-3.467,4.442-3.193c0.557,1.257,0.749,2.699,0.464,4.157	c-1.233,6.252-4.275,11.953-8.463,16.549C54.168,38.617,53.939,38.483,53.722,38.323z"/><path fill="#8d6c9f" fill-rule="evenodd" d="M50.83,42.169	c-0.365-0.413-0.325-1.047,0.088-1.412c5.483-4.841,9.518-11.424,10.967-18.772c0.624-3.188-1.405-6.249-4.475-6.871	c-3.077-0.624-6.094,1.404-6.716,4.575c-0.679,3.453-2.265,6.656-4.431,9.36c-0.345,0.431-0.975,0.501-1.405,0.156	c-0.431-0.345-0.501-0.975-0.156-1.405c1.985-2.48,3.419-5.392,4.031-8.496c0.828-4.229,4.882-6.999,9.073-6.151	c4.182,0.848,6.87,4.984,6.04,9.217c-1.54,7.817-5.82,14.779-11.605,19.887C51.829,42.622,51.196,42.582,50.83,42.169z" clip-rule="evenodd"/><path fill="#ace3ff" d="M25.88,41.526c-5.888-1.271-11.345-5.483-14.447-9.641	c-0.852-1.137-1.606-2.411-2.153-3.8c-0.769-1.955,0.109-4.155,1.966-5.06c1.169,0.735,2.128,1.836,2.685,3.224	c0.357,0.907,0.872,1.792,1.506,2.641c2.541,3.404,7.031,6.783,11.497,7.747c1.077,0.232,2.153,0.352,3.194,0.352	c1.334,0,2.669-0.167,3.977-0.484l2.192,4.463c-0.311,0.175-0.649,0.309-1.012,0.397c-1.678,0.408-3.409,0.624-5.156,0.624	C28.707,41.989,27.278,41.827,25.88,41.526z"/><path fill="#8d6c9f" fill-rule="evenodd" d="M20.769,49.458	c-4.427-1.447-8.534-3.752-12.094-6.789c-3.586-3.071-6.474-6.827-8.117-10.957c-1.58-3.979,0.308-8.525,4.258-10.145	c3.957-1.609,8.445,0.327,10.044,4.313c0.321,0.813,0.788,1.621,1.378,2.413c2.43,3.255,6.725,6.464,10.907,7.367	c1.013,0.219,2.018,0.329,2.983,0.329c1.176,0,2.357-0.139,3.519-0.404c0.537-0.123,1.074,0.215,1.197,0.753	c0.123,0.537-0.215,1.075-0.753,1.197c-1.301,0.297-2.632,0.453-3.963,0.453c-1.118,0-2.265-0.128-3.406-0.373	c-4.75-1.025-9.434-4.573-12.086-8.127c-0.679-0.907-1.241-1.869-1.634-2.869c-1.19-2.968-4.519-4.387-7.431-3.201	c-2.916,1.196-4.339,4.577-3.157,7.553c1.505,3.779,4.174,7.279,7.56,10.176c3.359,2.869,7.237,5.044,11.417,6.411	c2.862,0.936,5.822,1.441,8.728,1.441c3.179,0,6.326-0.545,9.329-1.555c0.524-0.176,1.09,0.105,1.266,0.628	c0.176,0.524-0.105,1.091-0.628,1.267c-3.198,1.076-6.56,1.66-9.968,1.66C26.982,50.999,23.815,50.455,20.769,49.458z" clip-rule="evenodd"/><path fill="#e0678f" fill-rule="evenodd" d="M42.548,54.235 l-2.812-5.916l-1.66-3.493c0.249-0.212,0.531-0.396,0.837-0.545c1.973-0.956,4.341-0.115,5.287,1.876l2.813,5.919 c0.26,0.548,0.824,0.921,1.481,0.919c0.151,0,0.289-0.019,0.443-0.061c0.42-0.115,0.762-0.409,0.96-0.871 c0.201-0.468,0.208-1.021-0.033-1.528c-0.948-1.991-0.116-4.383,1.854-5.339c0.309-0.149,0.629-0.256,0.952-0.32l1.661,3.491 c1.774,3.725-0.111,8.292-4.077,9.387c-0.577,0.161-1.166,0.241-1.753,0.241C45.956,57.999,43.64,56.535,42.548,54.235z" clip-rule="evenodd"/><path fill="#f7a1c8" fill-rule="evenodd" d="M40.659,31.166 l-8.663-18.241c-0.26-0.549-0.829-0.924-1.48-0.925c-0.647,0-1.216,0.373-1.477,0.925l-4.557,9.591 c-0.945,1.991-3.315,2.832-5.287,1.877c-0.309-0.149-0.591-0.333-0.843-0.547l6.22-13.084c1.093-2.3,3.406-3.763,5.946-3.763 c2.541,0.001,4.854,1.465,5.946,3.763l8.714,18.335l1.61,3.397c-0.251,0.215-0.533,0.4-0.841,0.549 C43.974,33.998,41.607,33.157,40.659,31.166z M45.167,29.107l0.012-0.011C45.167,29.097,45.167,29.107,45.167,29.107z" clip-rule="evenodd"/><path fill="#8d6c9f" fill-rule="evenodd" d="M41.644,54.665	L30.528,31.266l-2.649,5.569c-0.237,0.499-0.835,0.711-1.333,0.473s-0.711-0.835-0.473-1.333l2.874-6.043	c0.632-1.324,2.533-1.333,3.162,0.003L43.45,53.807c0.927,1.951,2.892,3.192,5.05,3.187c0.496,0,0.994-0.067,1.486-0.204	c3.319-0.916,4.97-4.783,3.441-7.993L35.561,11.191c-0.927-1.949-2.889-3.191-5.043-3.192c-2.152,0-4.114,1.24-5.042,3.192	l-8.683,18.271c-0.237,0.499-0.835,0.712-1.332,0.475c-0.499-0.237-0.712-0.835-0.475-1.332l8.683-18.271	c1.258-2.648,3.922-4.335,6.849-4.335c2.928,0.003,5.591,1.689,6.848,4.335l17.866,37.603c2.02,4.24-0.1,9.507-4.712,10.78	c-0.663,0.185-1.342,0.277-2.02,0.277C45.57,59.001,42.901,57.314,41.644,54.665z" clip-rule="evenodd"/></svg>